<svg width="595.276" height="841.89" xmlns="http://www.w3.org/2000/svg">
 <metadata id="metadata3039">image/svg+xml</metadata>

 <g>
  <title>background</title>
  <rect fill="none" id="canvas_background" height="402" width="582" y="-1" x="-1"/>
 </g>
 <g>
  <title>Layer 1</title>
  <path fill="#ffffff" stroke="#ffffff" id="path3025" d="m143.547667,388.220972c22.737,50.44 15.792,102.75 -15.51,116.87c-31.303,14.12 -75.11,-15.31 -97.845,-65.74c-22.737,-50.43 -15.793,-102.745 15.51,-116.863c31.303,-14.114 75.108,15.317 97.845,65.733z"/>
  <path fill="#ffffff" id="path3027" d="m452.969667,388.220972c-22.738,50.44 -15.793,102.75 15.512,116.87c31.303,14.12 75.106,-15.31 97.846,-65.74c22.734,-50.43 15.789,-102.745 -15.513,-116.863c-31.301,-14.114 -75.108,15.317 -97.845,65.733z"/>
  <path fill="#ffffff" id="path3029" d="m276.600267,287.127972c11.6548,54.069 -6.1108,103.763 -39.6787,111.003c-33.5654,7.23 -70.2249,-30.74 -81.8779,-84.804c-11.653,-54.068 6.112,-103.764 39.6792,-110.997c33.5669,-7.236 70.2246,30.729 81.8774,84.798z"/>
  <path fill="#ffffff" id="path3031" d="m319.082267,287.173972c-11.6446,54.068 6.1084,103.767 39.6738,110.997c33.5676,7.24 70.2256,-30.73 81.8776,-84.797c11.654,-54.069 -6.109,-103.765 -39.678,-110.998c-33.5678,-7.234 -70.225,30.729 -81.8734,84.798z"/>
  <path fill="#ffffff" id="path3033" d="m232.829213,471.386879c-8.1924,14.15 -46.1563,60.99 -72.4145,76.97c-26.256,15.98 -58.792,39.38 -53.332,93.11c5.457,53.74 60.575,76.74 96.8597,74.7c36.2867,-2.03 104.6993,-8.71 153.543,-1.94c48.8413,6.77 110.4863,1.64 124.9223,-49.81c14.436,-51.45 -17.85,-84.23 -43.044,-102.83c-25.193,-18.59 -67.265,-74.2 -80.2269,-99.73c-12.96,-25.52 -78.9268,-72.26 -126.3076,9.53z"/>
 </g>
</svg>